<mxfile host="app.diagrams.net" modified="2021-06-04T15:36:28.436Z" agent="5.0 (Windows NT 10.0; Win64; x64) AppleWebKit/537.36 (KHTML, like Gecko) Chrome/88.0.4324.182 Safari/537.36" etag="OLqtXc223WLhCsYDBILb" version="14.7.5" type="github">
  <diagram id="cDP458budaUTWZo_Sfvz" name="Page-1">
    <mxGraphModel dx="1773" dy="1064" grid="1" gridSize="10" guides="1" tooltips="1" connect="1" arrows="1" fold="1" page="1" pageScale="1" pageWidth="3300" pageHeight="4681" math="0" shadow="0">
      <root>
        <mxCell id="0" />
        <mxCell id="1" parent="0" />
        <mxCell id="-JOk2qOWGztv6OYyuou_-6" value="" style="edgeStyle=orthogonalEdgeStyle;rounded=0;orthogonalLoop=1;jettySize=auto;html=1;" edge="1" parent="1" source="-JOk2qOWGztv6OYyuou_-1" target="-JOk2qOWGztv6OYyuou_-3">
          <mxGeometry relative="1" as="geometry" />
        </mxCell>
        <mxCell id="-JOk2qOWGztv6OYyuou_-1" value="FUNCTION update_password(user_data, data_clients, login_index, space_clients)" style="shape=process;whiteSpace=wrap;html=1;backgroundOutline=1;" vertex="1" parent="1">
          <mxGeometry x="460" y="80" width="240" height="70" as="geometry" />
        </mxCell>
        <mxCell id="-JOk2qOWGztv6OYyuou_-5" value="" style="edgeStyle=orthogonalEdgeStyle;rounded=0;orthogonalLoop=1;jettySize=auto;html=1;" edge="1" parent="1" source="-JOk2qOWGztv6OYyuou_-3" target="-JOk2qOWGztv6OYyuou_-4">
          <mxGeometry relative="1" as="geometry" />
        </mxCell>
        <mxCell id="-JOk2qOWGztv6OYyuou_-3" value="title = user_data[2] + &quot;, change your password here.&quot;" style="rounded=1;whiteSpace=wrap;html=1;" vertex="1" parent="1">
          <mxGeometry x="465" y="220" width="230" height="40" as="geometry" />
        </mxCell>
        <mxCell id="-JOk2qOWGztv6OYyuou_-9" value="" style="edgeStyle=orthogonalEdgeStyle;rounded=0;orthogonalLoop=1;jettySize=auto;html=1;" edge="1" parent="1" source="-JOk2qOWGztv6OYyuou_-4" target="-JOk2qOWGztv6OYyuou_-7">
          <mxGeometry relative="1" as="geometry" />
        </mxCell>
        <mxCell id="-JOk2qOWGztv6OYyuou_-4" value="DECLARE menu = [&quot;Change My Password&quot;, &quot;Return&quot;]" style="rounded=1;whiteSpace=wrap;html=1;" vertex="1" parent="1">
          <mxGeometry x="465" y="340" width="230" height="40" as="geometry" />
        </mxCell>
        <mxCell id="-JOk2qOWGztv6OYyuou_-10" value="" style="edgeStyle=orthogonalEdgeStyle;rounded=0;orthogonalLoop=1;jettySize=auto;html=1;" edge="1" parent="1" source="-JOk2qOWGztv6OYyuou_-7" target="-JOk2qOWGztv6OYyuou_-8">
          <mxGeometry relative="1" as="geometry" />
        </mxCell>
        <mxCell id="-JOk2qOWGztv6OYyuou_-7" value="default.general_menu(menu)" style="shape=process;whiteSpace=wrap;html=1;backgroundOutline=1;" vertex="1" parent="1">
          <mxGeometry x="460" y="440" width="240" height="70" as="geometry" />
        </mxCell>
        <mxCell id="-JOk2qOWGztv6OYyuou_-12" value="" style="edgeStyle=orthogonalEdgeStyle;rounded=0;orthogonalLoop=1;jettySize=auto;html=1;" edge="1" parent="1" source="-JOk2qOWGztv6OYyuou_-8" target="-JOk2qOWGztv6OYyuou_-11">
          <mxGeometry relative="1" as="geometry" />
        </mxCell>
        <mxCell id="-JOk2qOWGztv6OYyuou_-8" value="PRINT(&quot;Please Select: &quot;)" style="rounded=1;whiteSpace=wrap;html=1;" vertex="1" parent="1">
          <mxGeometry x="465" y="560" width="230" height="40" as="geometry" />
        </mxCell>
        <mxCell id="-JOk2qOWGztv6OYyuou_-14" value="" style="edgeStyle=orthogonalEdgeStyle;rounded=0;orthogonalLoop=1;jettySize=auto;html=1;" edge="1" parent="1" source="-JOk2qOWGztv6OYyuou_-11" target="-JOk2qOWGztv6OYyuou_-13">
          <mxGeometry relative="1" as="geometry" />
        </mxCell>
        <mxCell id="-JOk2qOWGztv6OYyuou_-11" value="READ choice" style="shape=parallelogram;perimeter=parallelogramPerimeter;whiteSpace=wrap;html=1;fixedSize=1;" vertex="1" parent="1">
          <mxGeometry x="465" y="640" width="229" height="50" as="geometry" />
        </mxCell>
        <mxCell id="-JOk2qOWGztv6OYyuou_-21" value="" style="edgeStyle=orthogonalEdgeStyle;rounded=0;orthogonalLoop=1;jettySize=auto;html=1;" edge="1" parent="1" source="-JOk2qOWGztv6OYyuou_-13" target="-JOk2qOWGztv6OYyuou_-20">
          <mxGeometry relative="1" as="geometry" />
        </mxCell>
        <mxCell id="-JOk2qOWGztv6OYyuou_-24" style="edgeStyle=orthogonalEdgeStyle;rounded=0;orthogonalLoop=1;jettySize=auto;html=1;" edge="1" parent="1" source="-JOk2qOWGztv6OYyuou_-13">
          <mxGeometry relative="1" as="geometry">
            <mxPoint x="580" y="400" as="targetPoint" />
            <Array as="points">
              <mxPoint x="400" y="795" />
              <mxPoint x="400" y="400" />
            </Array>
          </mxGeometry>
        </mxCell>
        <mxCell id="-JOk2qOWGztv6OYyuou_-13" value="choice == &#39;1&#39; OR choice == &#39;2&#39;" style="rhombus;whiteSpace=wrap;html=1;" vertex="1" parent="1">
          <mxGeometry x="467.5" y="740" width="225" height="110" as="geometry" />
        </mxCell>
        <mxCell id="-JOk2qOWGztv6OYyuou_-27" value="" style="edgeStyle=orthogonalEdgeStyle;rounded=0;orthogonalLoop=1;jettySize=auto;html=1;" edge="1" parent="1" source="-JOk2qOWGztv6OYyuou_-17" target="-JOk2qOWGztv6OYyuou_-26">
          <mxGeometry relative="1" as="geometry" />
        </mxCell>
        <mxCell id="-JOk2qOWGztv6OYyuou_-55" style="edgeStyle=orthogonalEdgeStyle;rounded=0;orthogonalLoop=1;jettySize=auto;html=1;entryX=0.5;entryY=0;entryDx=0;entryDy=0;" edge="1" parent="1" source="-JOk2qOWGztv6OYyuou_-17" target="-JOk2qOWGztv6OYyuou_-30">
          <mxGeometry relative="1" as="geometry" />
        </mxCell>
        <mxCell id="-JOk2qOWGztv6OYyuou_-17" value="choice == &#39;2&#39;" style="rhombus;whiteSpace=wrap;html=1;" vertex="1" parent="1">
          <mxGeometry x="524.5" y="990" width="110" height="100" as="geometry" />
        </mxCell>
        <mxCell id="-JOk2qOWGztv6OYyuou_-22" value="" style="edgeStyle=orthogonalEdgeStyle;rounded=0;orthogonalLoop=1;jettySize=auto;html=1;" edge="1" parent="1" source="-JOk2qOWGztv6OYyuou_-20" target="-JOk2qOWGztv6OYyuou_-17">
          <mxGeometry relative="1" as="geometry" />
        </mxCell>
        <mxCell id="-JOk2qOWGztv6OYyuou_-20" value="BREAK" style="rounded=1;whiteSpace=wrap;html=1;" vertex="1" parent="1">
          <mxGeometry x="507" y="890" width="145" height="40" as="geometry" />
        </mxCell>
        <mxCell id="-JOk2qOWGztv6OYyuou_-23" value="True" style="text;html=1;align=center;verticalAlign=middle;resizable=0;points=[];autosize=1;strokeColor=none;" vertex="1" parent="1">
          <mxGeometry x="580" y="850" width="40" height="20" as="geometry" />
        </mxCell>
        <mxCell id="-JOk2qOWGztv6OYyuou_-25" value="False" style="text;html=1;align=center;verticalAlign=middle;resizable=0;points=[];autosize=1;strokeColor=none;" vertex="1" parent="1">
          <mxGeometry x="428" y="770" width="40" height="20" as="geometry" />
        </mxCell>
        <mxCell id="-JOk2qOWGztv6OYyuou_-26" value="RETURN" style="ellipse;whiteSpace=wrap;html=1;" vertex="1" parent="1">
          <mxGeometry x="330" y="1000" width="90" height="80" as="geometry" />
        </mxCell>
        <mxCell id="-JOk2qOWGztv6OYyuou_-28" value="False" style="text;html=1;align=center;verticalAlign=middle;resizable=0;points=[];autosize=1;strokeColor=none;" vertex="1" parent="1">
          <mxGeometry x="630" y="1020" width="40" height="20" as="geometry" />
        </mxCell>
        <mxCell id="-JOk2qOWGztv6OYyuou_-29" value="True" style="text;html=1;align=center;verticalAlign=middle;resizable=0;points=[];autosize=1;strokeColor=none;" vertex="1" parent="1">
          <mxGeometry x="490" y="1020" width="40" height="20" as="geometry" />
        </mxCell>
        <mxCell id="-JOk2qOWGztv6OYyuou_-35" value="" style="edgeStyle=orthogonalEdgeStyle;rounded=0;orthogonalLoop=1;jettySize=auto;html=1;" edge="1" parent="1" source="-JOk2qOWGztv6OYyuou_-30" target="-JOk2qOWGztv6OYyuou_-31">
          <mxGeometry relative="1" as="geometry" />
        </mxCell>
        <mxCell id="-JOk2qOWGztv6OYyuou_-30" value="PRINT(&quot;Please enter your old password: &quot;)" style="rounded=1;whiteSpace=wrap;html=1;" vertex="1" parent="1">
          <mxGeometry x="820" y="95" width="240" height="40" as="geometry" />
        </mxCell>
        <mxCell id="-JOk2qOWGztv6OYyuou_-36" value="" style="edgeStyle=orthogonalEdgeStyle;rounded=0;orthogonalLoop=1;jettySize=auto;html=1;" edge="1" parent="1" source="-JOk2qOWGztv6OYyuou_-31" target="-JOk2qOWGztv6OYyuou_-32">
          <mxGeometry relative="1" as="geometry" />
        </mxCell>
        <mxCell id="-JOk2qOWGztv6OYyuou_-31" value="READ old_password" style="shape=parallelogram;perimeter=parallelogramPerimeter;whiteSpace=wrap;html=1;fixedSize=1;" vertex="1" parent="1">
          <mxGeometry x="825.5" y="180" width="229" height="50" as="geometry" />
        </mxCell>
        <mxCell id="-JOk2qOWGztv6OYyuou_-34" value="" style="edgeStyle=orthogonalEdgeStyle;rounded=0;orthogonalLoop=1;jettySize=auto;html=1;" edge="1" parent="1" source="-JOk2qOWGztv6OYyuou_-32" target="-JOk2qOWGztv6OYyuou_-33">
          <mxGeometry relative="1" as="geometry" />
        </mxCell>
        <mxCell id="-JOk2qOWGztv6OYyuou_-32" value="hash_object = hashlib.md5(old_password.encode())" style="rounded=1;whiteSpace=wrap;html=1;" vertex="1" parent="1">
          <mxGeometry x="820" y="280" width="240" height="40" as="geometry" />
        </mxCell>
        <mxCell id="-JOk2qOWGztv6OYyuou_-38" value="" style="edgeStyle=orthogonalEdgeStyle;rounded=0;orthogonalLoop=1;jettySize=auto;html=1;" edge="1" parent="1" source="-JOk2qOWGztv6OYyuou_-33" target="-JOk2qOWGztv6OYyuou_-37">
          <mxGeometry relative="1" as="geometry" />
        </mxCell>
        <mxCell id="-JOk2qOWGztv6OYyuou_-33" value="md5_hash = hash_object.hexdigest()" style="rounded=1;whiteSpace=wrap;html=1;" vertex="1" parent="1">
          <mxGeometry x="820" y="370" width="240" height="40" as="geometry" />
        </mxCell>
        <mxCell id="-JOk2qOWGztv6OYyuou_-40" value="" style="edgeStyle=orthogonalEdgeStyle;rounded=0;orthogonalLoop=1;jettySize=auto;html=1;" edge="1" parent="1" source="-JOk2qOWGztv6OYyuou_-37" target="-JOk2qOWGztv6OYyuou_-39">
          <mxGeometry relative="1" as="geometry" />
        </mxCell>
        <mxCell id="-JOk2qOWGztv6OYyuou_-37" value="old_password = md5_hash" style="rounded=1;whiteSpace=wrap;html=1;" vertex="1" parent="1">
          <mxGeometry x="820" y="450" width="240" height="40" as="geometry" />
        </mxCell>
        <mxCell id="-JOk2qOWGztv6OYyuou_-42" value="" style="edgeStyle=orthogonalEdgeStyle;rounded=0;orthogonalLoop=1;jettySize=auto;html=1;" edge="1" parent="1" source="-JOk2qOWGztv6OYyuou_-39" target="-JOk2qOWGztv6OYyuou_-41">
          <mxGeometry relative="1" as="geometry">
            <Array as="points">
              <mxPoint x="1090" y="580" />
              <mxPoint x="1090" y="115" />
            </Array>
          </mxGeometry>
        </mxCell>
        <mxCell id="-JOk2qOWGztv6OYyuou_-45" value="" style="edgeStyle=orthogonalEdgeStyle;rounded=0;orthogonalLoop=1;jettySize=auto;html=1;" edge="1" parent="1" source="-JOk2qOWGztv6OYyuou_-39" target="-JOk2qOWGztv6OYyuou_-44">
          <mxGeometry relative="1" as="geometry" />
        </mxCell>
        <mxCell id="-JOk2qOWGztv6OYyuou_-39" value="old_password == user_data[3]" style="rhombus;whiteSpace=wrap;html=1;" vertex="1" parent="1">
          <mxGeometry x="867.5" y="530" width="145" height="100" as="geometry" />
        </mxCell>
        <mxCell id="-JOk2qOWGztv6OYyuou_-60" value="" style="edgeStyle=orthogonalEdgeStyle;rounded=0;orthogonalLoop=1;jettySize=auto;html=1;" edge="1" parent="1" source="-JOk2qOWGztv6OYyuou_-41" target="-JOk2qOWGztv6OYyuou_-57">
          <mxGeometry relative="1" as="geometry" />
        </mxCell>
        <mxCell id="-JOk2qOWGztv6OYyuou_-41" value="BREAK" style="rounded=1;whiteSpace=wrap;html=1;" vertex="1" parent="1">
          <mxGeometry x="1170" y="95" width="145" height="40" as="geometry" />
        </mxCell>
        <mxCell id="-JOk2qOWGztv6OYyuou_-43" value="True" style="text;html=1;align=center;verticalAlign=middle;resizable=0;points=[];autosize=1;strokeColor=none;" vertex="1" parent="1">
          <mxGeometry x="1012.5" y="560" width="40" height="20" as="geometry" />
        </mxCell>
        <mxCell id="-JOk2qOWGztv6OYyuou_-53" value="" style="edgeStyle=orthogonalEdgeStyle;rounded=0;orthogonalLoop=1;jettySize=auto;html=1;" edge="1" parent="1" source="-JOk2qOWGztv6OYyuou_-44" target="-JOk2qOWGztv6OYyuou_-46">
          <mxGeometry relative="1" as="geometry" />
        </mxCell>
        <mxCell id="-JOk2qOWGztv6OYyuou_-44" value="PRINT(str(3-i-1) + &quot; attempts are left.&quot;)" style="rounded=1;whiteSpace=wrap;html=1;" vertex="1" parent="1">
          <mxGeometry x="825.5" y="700" width="230" height="40" as="geometry" />
        </mxCell>
        <mxCell id="-JOk2qOWGztv6OYyuou_-49" value="" style="edgeStyle=orthogonalEdgeStyle;rounded=0;orthogonalLoop=1;jettySize=auto;html=1;" edge="1" parent="1" source="-JOk2qOWGztv6OYyuou_-46" target="-JOk2qOWGztv6OYyuou_-48">
          <mxGeometry relative="1" as="geometry" />
        </mxCell>
        <mxCell id="-JOk2qOWGztv6OYyuou_-46" value="i = i + 1" style="rounded=1;whiteSpace=wrap;html=1;" vertex="1" parent="1">
          <mxGeometry x="868" y="790" width="145" height="40" as="geometry" />
        </mxCell>
        <mxCell id="-JOk2qOWGztv6OYyuou_-56" style="edgeStyle=orthogonalEdgeStyle;rounded=0;orthogonalLoop=1;jettySize=auto;html=1;" edge="1" parent="1">
          <mxGeometry relative="1" as="geometry">
            <mxPoint x="770" y="77" as="targetPoint" />
            <mxPoint x="868" y="885" as="sourcePoint" />
          </mxGeometry>
        </mxCell>
        <mxCell id="-JOk2qOWGztv6OYyuou_-48" value="PRINT(&quot;&quot;)" style="rounded=1;whiteSpace=wrap;html=1;" vertex="1" parent="1">
          <mxGeometry x="868" y="870" width="145" height="40" as="geometry" />
        </mxCell>
        <mxCell id="-JOk2qOWGztv6OYyuou_-50" value="False" style="text;html=1;align=center;verticalAlign=middle;resizable=0;points=[];autosize=1;strokeColor=none;" vertex="1" parent="1">
          <mxGeometry x="940" y="630" width="40" height="20" as="geometry" />
        </mxCell>
        <mxCell id="-JOk2qOWGztv6OYyuou_-59" value="" style="edgeStyle=orthogonalEdgeStyle;rounded=0;orthogonalLoop=1;jettySize=auto;html=1;" edge="1" parent="1" source="-JOk2qOWGztv6OYyuou_-57" target="-JOk2qOWGztv6OYyuou_-58">
          <mxGeometry relative="1" as="geometry" />
        </mxCell>
        <mxCell id="-JOk2qOWGztv6OYyuou_-63" value="" style="edgeStyle=orthogonalEdgeStyle;rounded=0;orthogonalLoop=1;jettySize=auto;html=1;" edge="1" parent="1" source="-JOk2qOWGztv6OYyuou_-57" target="-JOk2qOWGztv6OYyuou_-62">
          <mxGeometry relative="1" as="geometry" />
        </mxCell>
        <mxCell id="-JOk2qOWGztv6OYyuou_-57" value="i == 3" style="rhombus;whiteSpace=wrap;html=1;" vertex="1" parent="1">
          <mxGeometry x="1187" y="190" width="110" height="100" as="geometry" />
        </mxCell>
        <mxCell id="-JOk2qOWGztv6OYyuou_-58" value="RETURN" style="ellipse;whiteSpace=wrap;html=1;" vertex="1" parent="1">
          <mxGeometry x="1370" y="200" width="90" height="80" as="geometry" />
        </mxCell>
        <mxCell id="-JOk2qOWGztv6OYyuou_-67" value="" style="edgeStyle=orthogonalEdgeStyle;rounded=0;orthogonalLoop=1;jettySize=auto;html=1;" edge="1" parent="1" source="-JOk2qOWGztv6OYyuou_-62" target="-JOk2qOWGztv6OYyuou_-66">
          <mxGeometry relative="1" as="geometry" />
        </mxCell>
        <mxCell id="-JOk2qOWGztv6OYyuou_-62" value="new_password = default.validation_length(space_clients[3])" style="rounded=1;whiteSpace=wrap;html=1;" vertex="1" parent="1">
          <mxGeometry x="1127" y="330" width="230" height="40" as="geometry" />
        </mxCell>
        <mxCell id="-JOk2qOWGztv6OYyuou_-64" value="True" style="text;html=1;align=center;verticalAlign=middle;resizable=0;points=[];autosize=1;strokeColor=none;" vertex="1" parent="1">
          <mxGeometry x="1297" y="220" width="40" height="20" as="geometry" />
        </mxCell>
        <mxCell id="-JOk2qOWGztv6OYyuou_-65" value="False" style="text;html=1;align=center;verticalAlign=middle;resizable=0;points=[];autosize=1;strokeColor=none;" vertex="1" parent="1">
          <mxGeometry x="1240" y="290" width="40" height="20" as="geometry" />
        </mxCell>
        <mxCell id="-JOk2qOWGztv6OYyuou_-69" value="" style="edgeStyle=orthogonalEdgeStyle;rounded=0;orthogonalLoop=1;jettySize=auto;html=1;" edge="1" parent="1" source="-JOk2qOWGztv6OYyuou_-66" target="-JOk2qOWGztv6OYyuou_-68">
          <mxGeometry relative="1" as="geometry" />
        </mxCell>
        <mxCell id="-JOk2qOWGztv6OYyuou_-66" value="hash_object = hashlib.md5(new_password.encode())" style="rounded=1;whiteSpace=wrap;html=1;" vertex="1" parent="1">
          <mxGeometry x="1127.5" y="400" width="230" height="40" as="geometry" />
        </mxCell>
        <mxCell id="-JOk2qOWGztv6OYyuou_-71" value="" style="edgeStyle=orthogonalEdgeStyle;rounded=0;orthogonalLoop=1;jettySize=auto;html=1;" edge="1" parent="1" source="-JOk2qOWGztv6OYyuou_-68" target="-JOk2qOWGztv6OYyuou_-70">
          <mxGeometry relative="1" as="geometry" />
        </mxCell>
        <mxCell id="-JOk2qOWGztv6OYyuou_-68" value="md5_hash = hash_object.hexdigest()" style="rounded=1;whiteSpace=wrap;html=1;" vertex="1" parent="1">
          <mxGeometry x="1127.5" y="470" width="230" height="40" as="geometry" />
        </mxCell>
        <mxCell id="-JOk2qOWGztv6OYyuou_-73" value="" style="edgeStyle=orthogonalEdgeStyle;rounded=0;orthogonalLoop=1;jettySize=auto;html=1;" edge="1" parent="1" source="-JOk2qOWGztv6OYyuou_-70" target="-JOk2qOWGztv6OYyuou_-72">
          <mxGeometry relative="1" as="geometry" />
        </mxCell>
        <mxCell id="-JOk2qOWGztv6OYyuou_-70" value="new_password = md5_hash" style="rounded=1;whiteSpace=wrap;html=1;" vertex="1" parent="1">
          <mxGeometry x="1127.5" y="540" width="230" height="40" as="geometry" />
        </mxCell>
        <mxCell id="-JOk2qOWGztv6OYyuou_-75" value="" style="edgeStyle=orthogonalEdgeStyle;rounded=0;orthogonalLoop=1;jettySize=auto;html=1;" edge="1" parent="1" source="-JOk2qOWGztv6OYyuou_-72" target="-JOk2qOWGztv6OYyuou_-74">
          <mxGeometry relative="1" as="geometry" />
        </mxCell>
        <mxCell id="-JOk2qOWGztv6OYyuou_-72" value="user_data[3] = new_password" style="rounded=1;whiteSpace=wrap;html=1;" vertex="1" parent="1">
          <mxGeometry x="1127.5" y="610" width="230" height="40" as="geometry" />
        </mxCell>
        <mxCell id="-JOk2qOWGztv6OYyuou_-77" value="" style="edgeStyle=orthogonalEdgeStyle;rounded=0;orthogonalLoop=1;jettySize=auto;html=1;" edge="1" parent="1" source="-JOk2qOWGztv6OYyuou_-74" target="-JOk2qOWGztv6OYyuou_-76">
          <mxGeometry relative="1" as="geometry" />
        </mxCell>
        <mxCell id="-JOk2qOWGztv6OYyuou_-74" value="data_clients[login_index] = user_data" style="rounded=1;whiteSpace=wrap;html=1;" vertex="1" parent="1">
          <mxGeometry x="1127.5" y="680" width="230" height="40" as="geometry" />
        </mxCell>
        <mxCell id="-JOk2qOWGztv6OYyuou_-79" value="" style="edgeStyle=orthogonalEdgeStyle;rounded=0;orthogonalLoop=1;jettySize=auto;html=1;exitX=0.502;exitY=0.886;exitDx=0;exitDy=0;exitPerimeter=0;" edge="1" parent="1" source="-JOk2qOWGztv6OYyuou_-76" target="-JOk2qOWGztv6OYyuou_-78">
          <mxGeometry relative="1" as="geometry" />
        </mxCell>
        <mxCell id="-JOk2qOWGztv6OYyuou_-76" value="&lt;span&gt;WRITE data_clients INTO&amp;nbsp;./data/clients.txt&lt;/span&gt;" style="shape=document;whiteSpace=wrap;html=1;boundedLbl=1;size=0.25;" vertex="1" parent="1">
          <mxGeometry x="1123.75" y="770" width="237.5" height="80" as="geometry" />
        </mxCell>
        <mxCell id="-JOk2qOWGztv6OYyuou_-78" value="RETURN" style="ellipse;whiteSpace=wrap;html=1;" vertex="1" parent="1">
          <mxGeometry x="1198.5" y="910" width="90" height="80" as="geometry" />
        </mxCell>
      </root>
    </mxGraphModel>
  </diagram>
</mxfile>
